<svg width="156" height="40" viewBox="0 0 156 40" fill="none" xmlns="http://www.w3.org/2000/svg">
<path d="M10.0837 19.4999L20.0837 9.49992L30.0837 19.4999L20.0837 29.4999L10.0837 19.4999Z" fill="#CAFF33"/>
<path d="M36.7503 12.8333L30.0837 19.4999V9.49992H20.0837L26.7503 2.83325H36.7503V12.8333Z" fill="#CAFF33"/>
<path d="M36.7503 26.1666L30.0837 19.4999V29.4999H20.0837L26.7503 36.1666H36.7503V26.1666Z" fill="#CAFF33"/>
<path d="M3.41699 26.1666L10.0837 19.4999V29.4999H20.0837L13.417 36.1666H3.41699L3.41699 26.1666Z" fill="#CAFF33"/>
<path d="M3.41699 12.8333L10.0837 19.4999V9.49992H20.0837L13.417 2.83325H3.41699L3.41699 12.8333Z" fill="#CAFF33"/>
<path d="M59.4372 10.8333L53.292 21.6841V28.8323H50.3957V21.6841L44.2505 10.8333H47.5497L51.8564 18.8043L56.1379 10.8333H59.4372Z" fill="white"/>
<path d="M64.5919 29.1666C62.745 29.1666 61.1751 28.5152 59.8822 27.2124C58.5894 25.9096 57.943 24.3068 57.943 22.4041C57.943 20.5013 58.5894 18.8985 59.8822 17.5958C61.1751 16.293 62.745 15.6416 64.5919 15.6416C66.4556 15.6416 68.0255 16.293 69.3015 17.5958C70.5943 18.8985 71.2408 20.5013 71.2408 22.4041C71.2408 24.3068 70.5943 25.9096 69.3015 27.2124C68.0255 28.5152 66.4556 29.1666 64.5919 29.1666ZM61.7963 25.3096C62.5519 26.081 63.4837 26.4667 64.5919 26.4667C65.7 26.4667 66.6319 26.081 67.3874 25.3096C68.143 24.5383 68.5208 23.5697 68.5208 22.4041C68.5208 21.2384 68.143 20.2699 67.3874 19.4985C66.6319 18.7271 65.7 18.3414 64.5919 18.3414C63.4837 18.3414 62.5519 18.7271 61.7963 19.4985C61.0408 20.2699 60.663 21.2384 60.663 22.4041C60.663 23.5697 61.0408 24.5383 61.7963 25.3096Z" fill="white"/>
<path d="M82.1877 15.9758H84.9077V28.8323H82.1877V27.1867C81.365 28.5066 80.0637 29.1666 78.284 29.1666C76.84 29.1666 75.6731 28.6952 74.7832 27.7524C73.8933 26.8096 73.4484 25.5153 73.4484 23.8697V15.9758H76.1684V23.5869C76.1684 24.5468 76.4203 25.2839 76.924 25.7982C77.4277 26.3124 78.1161 26.5696 78.9891 26.5696C79.9462 26.5696 80.7185 26.2696 81.3062 25.6696C81.8938 25.0525 82.1877 24.1183 82.1877 22.8669V15.9758Z" fill="white"/>
<path d="M90.8083 18.1357C91.4967 16.5415 92.7895 15.7444 94.6868 15.7444V18.7528C93.6458 18.6843 92.7392 18.9414 91.9668 19.5242C91.1945 20.0899 90.8083 21.0327 90.8083 22.3527V28.8323H88.0883V15.9758H90.8083V18.1357Z" fill="white"/>
<path d="M107.249 19.4985C108.021 19.9099 108.626 20.4756 109.062 21.1956C109.499 21.9155 109.717 22.7469 109.717 23.6897C109.717 25.1639 109.205 26.3896 108.181 27.3667C107.157 28.3438 105.906 28.8323 104.428 28.8323H96.8728V10.8333H103.874C105.318 10.8333 106.536 11.3132 107.526 12.2732C108.534 13.216 109.037 14.3988 109.037 15.8216C109.037 17.3815 108.441 18.6071 107.249 19.4985ZM103.874 13.6103H99.7691V18.3414H103.874C104.512 18.3414 105.05 18.1186 105.486 17.6729C105.923 17.2101 106.141 16.6444 106.141 15.9758C106.141 15.3073 105.923 14.7502 105.486 14.3045C105.05 13.8417 104.512 13.6103 103.874 13.6103ZM104.428 26.0553C105.1 26.0553 105.662 25.8153 106.116 25.3354C106.586 24.8382 106.821 24.2383 106.821 23.5355C106.821 22.8326 106.586 22.2412 106.116 21.7613C105.662 21.2641 105.1 21.0156 104.428 21.0156H99.7691V26.0553H104.428Z" fill="white"/>
<path d="M122.165 15.9758H124.885V28.8323H122.165V26.981C121.14 28.4381 119.671 29.1666 117.757 29.1666C116.028 29.1666 114.55 28.5152 113.325 27.2124C112.099 25.8925 111.486 24.2897 111.486 22.4041C111.486 20.5013 112.099 18.8985 113.325 17.5958C114.55 16.293 116.028 15.6416 117.757 15.6416C119.671 15.6416 121.14 16.3615 122.165 17.8015V15.9758ZM115.339 25.3611C116.095 26.1325 117.044 26.5182 118.185 26.5182C119.327 26.5182 120.276 26.1325 121.031 25.3611C121.787 24.5725 122.165 23.5869 122.165 22.4041C122.165 21.2213 121.787 20.2442 121.031 19.4728C120.276 18.6843 119.327 18.29 118.185 18.29C117.044 18.29 116.095 18.6843 115.339 19.4728C114.584 20.2442 114.206 21.2213 114.206 22.4041C114.206 23.5869 114.584 24.5725 115.339 25.3611Z" fill="white"/>
<path d="M134.679 15.6416C136.123 15.6416 137.29 16.113 138.179 17.0558C139.069 17.9986 139.514 19.2928 139.514 20.9384V28.8323H136.794V21.2213C136.794 20.2613 136.542 19.5242 136.039 19.01C135.535 18.4957 134.847 18.2386 133.974 18.2386C133.017 18.2386 132.244 18.5471 131.657 19.1642C131.069 19.7642 130.775 20.6899 130.775 21.9412V28.8323H128.055V15.9758H130.775V17.6215C131.598 16.3015 132.899 15.6416 134.679 15.6416Z" fill="white"/>
<path d="M155.917 28.8323H152.467L145.516 20.2699V28.8323H142.619V10.8333H145.516V18.9071L152.215 10.8333H155.665L148.538 19.6014L155.917 28.8323Z" fill="white"/>
</svg>
