<svg width="156" height="40" viewBox="0 0 156 40" fill="none" xmlns="http://www.w3.org/2000/svg">
<path d="M10.0807 19.5L20.0807 9.50004L30.0807 19.5L20.0807 29.5L10.0807 19.5Z" fill="#CAFF33"/>
<path d="M36.7474 12.8334L30.0807 19.5V9.50004H20.0807L26.7474 2.83337H36.7474V12.8334Z" fill="#CAFF33"/>
<path d="M36.7474 26.1667L30.0807 19.5V29.5H20.0807L26.7474 36.1667H36.7474V26.1667Z" fill="#CAFF33"/>
<path d="M3.41406 26.1667L10.0807 19.5V29.5H20.0807L13.4141 36.1667H3.41406L3.41406 26.1667Z" fill="#CAFF33"/>
<path d="M3.41406 12.8334L10.0807 19.5V9.50004H20.0807L13.4141 2.83337H3.41406L3.41406 12.8334Z" fill="#CAFF33"/>
<path d="M59.4367 10.8333L53.2915 21.6841V28.8323H50.3952V21.6841L44.25 10.8333H47.5493L51.8559 18.8043L56.1374 10.8333H59.4367Z" fill="white"/>
<path d="M64.5914 29.1666C62.7445 29.1666 61.1746 28.5152 59.8817 27.2124C58.5889 25.9096 57.9425 24.3068 57.9425 22.4041C57.9425 20.5013 58.5889 18.8985 59.8817 17.5958C61.1746 16.293 62.7445 15.6416 64.5914 15.6416C66.4551 15.6416 68.025 16.293 69.301 17.5958C70.5939 18.8985 71.2403 20.5013 71.2403 22.4041C71.2403 24.3068 70.5939 25.9096 69.301 27.2124C68.025 28.5152 66.4551 29.1666 64.5914 29.1666ZM61.7958 25.3096C62.5514 26.081 63.4832 26.4667 64.5914 26.4667C65.6995 26.4667 66.6314 26.081 67.3869 25.3096C68.1425 24.5383 68.5203 23.5697 68.5203 22.4041C68.5203 21.2384 68.1425 20.2699 67.3869 19.4985C66.6314 18.7271 65.6995 18.3414 64.5914 18.3414C63.4832 18.3414 62.5514 18.7271 61.7958 19.4985C61.0403 20.2699 60.6625 21.2384 60.6625 22.4041C60.6625 23.5697 61.0403 24.5383 61.7958 25.3096Z" fill="white"/>
<path d="M82.1872 15.9758H84.9072V28.8323H82.1872V27.1867C81.3645 28.5066 80.0632 29.1666 78.2835 29.1666C76.8395 29.1666 75.6726 28.6952 74.7827 27.7524C73.8929 26.8096 73.4479 25.5153 73.4479 23.8697V15.9758H76.1679V23.5869C76.1679 24.5468 76.4198 25.2839 76.9235 25.7982C77.4272 26.3124 78.1156 26.5696 78.9887 26.5696C79.9457 26.5696 80.718 26.2696 81.3057 25.6696C81.8934 25.0525 82.1872 24.1183 82.1872 22.8669V15.9758Z" fill="white"/>
<path d="M90.8078 18.1357C91.4962 16.5415 92.789 15.7444 94.6863 15.7444V18.7528C93.6453 18.6843 92.7387 18.9414 91.9663 19.5242C91.194 20.0899 90.8078 21.0327 90.8078 22.3527V28.8323H88.0878V15.9758H90.8078V18.1357Z" fill="white"/>
<path d="M107.249 19.4985C108.021 19.9099 108.625 20.4756 109.062 21.1956C109.498 21.9155 109.717 22.7469 109.717 23.6897C109.717 25.1639 109.205 26.3896 108.18 27.3667C107.156 28.3438 105.905 28.8323 104.428 28.8323H96.8723V10.8333H103.874C105.318 10.8333 106.535 11.3132 107.526 12.2732C108.533 13.216 109.037 14.3988 109.037 15.8216C109.037 17.3815 108.441 18.6071 107.249 19.4985ZM103.874 13.6103H99.7686V18.3414H103.874C104.512 18.3414 105.049 18.1186 105.486 17.6729C105.922 17.2101 106.14 16.6444 106.14 15.9758C106.14 15.3073 105.922 14.7502 105.486 14.3045C105.049 13.8417 104.512 13.6103 103.874 13.6103ZM104.428 26.0553C105.099 26.0553 105.662 25.8153 106.115 25.3354C106.585 24.8382 106.82 24.2383 106.82 23.5355C106.82 22.8326 106.585 22.2412 106.115 21.7613C105.662 21.2641 105.099 21.0156 104.428 21.0156H99.7686V26.0553H104.428Z" fill="white"/>
<path d="M122.164 15.9758H124.884V28.8323H122.164V26.981C121.14 28.4381 119.671 29.1666 117.757 29.1666C116.027 29.1666 114.55 28.5152 113.324 27.2124C112.098 25.8925 111.486 24.2897 111.486 22.4041C111.486 20.5013 112.098 18.8985 113.324 17.5958C114.55 16.293 116.027 15.6416 117.757 15.6416C119.671 15.6416 121.14 16.3615 122.164 17.8015V15.9758ZM115.339 25.3611C116.095 26.1325 117.043 26.5182 118.185 26.5182C119.327 26.5182 120.275 26.1325 121.031 25.3611C121.786 24.5725 122.164 23.5869 122.164 22.4041C122.164 21.2213 121.786 20.2442 121.031 19.4728C120.275 18.6843 119.327 18.29 118.185 18.29C117.043 18.29 116.095 18.6843 115.339 19.4728C114.583 20.2442 114.206 21.2213 114.206 22.4041C114.206 23.5869 114.583 24.5725 115.339 25.3611Z" fill="white"/>
<path d="M134.678 15.6416C136.122 15.6416 137.289 16.113 138.179 17.0558C139.069 17.9986 139.514 19.2928 139.514 20.9384V28.8323H136.794V21.2213C136.794 20.2613 136.542 19.5242 136.038 19.01C135.535 18.4957 134.846 18.2386 133.973 18.2386C133.016 18.2386 132.244 18.5471 131.656 19.1642C131.068 19.7642 130.775 20.6899 130.775 21.9412V28.8323H128.055V15.9758H130.775V17.6215C131.597 16.3015 132.898 15.6416 134.678 15.6416Z" fill="white"/>
<path d="M155.917 28.8323H152.466L145.515 20.2699V28.8323H142.619V10.8333H145.515V18.9071L152.214 10.8333H155.665L148.537 19.6014L155.917 28.8323Z" fill="white"/>
</svg>
